0.11m3min_grf.mot
version=1
nRows=27
nColumns 19
inDegrees=yes
endheader
time	1_ground_force_vx	1_ground_force_vy	1_ground_force_vz	1_ground_force_px	1_ground_force_py	1_ground_force_pz	1_ground_torque_x	1_ground_torque_y	1_ground_torque_z	2_ground_force_vx	2_ground_force_vy	2_ground_force_vz	2_ground_force_px	2_ground_force_py	2_ground_force_pz	2_ground_torque_x	2_ground_torque_y	2_ground_torque_z
            2.502500	           -0.964256	           -3.962099	           -0.931734	           -0.233013	            0.005581	           -0.255695	           -0.296761	            0.489931	           -0.169658	           -2.321654	            7.352958	            1.341246	           -0.232311	            0.006130	           -0.833667	           -1.633551	           -0.204878	            0.131938
            2.503000	           -0.963294	           -4.864803	           -0.614608	           -0.233013	            0.005581	           -0.255695	           -0.535311	            0.444002	           -0.244423	           -2.219191	            4.958364	            1.614233	           -0.232311	            0.006130	           -0.833667	           -1.351310	           -0.336064	            0.093646
            2.503500	           -0.689554	           -4.502056	           -1.118159	           -0.233013	            0.005581	           -0.255695	           -0.438882	            0.250018	           -0.233778	           -1.940626	            5.694968	            1.898310	           -0.232311	            0.006130	           -0.833667	           -1.313159	           -0.496624	            0.093056
            2.504000	           -0.415068	           -3.239553	           -1.250999	           -0.233013	            0.005581	           -0.255695	           -0.546352	           -0.184321	           -0.223690	           -1.515072	            4.592270	            1.706476	           -0.232311	            0.006130	           -0.833667	           -1.200268	           -0.543548	            0.111690
            2.504500	           -0.552595	           -4.501047	           -1.347780	           -0.233013	            0.005581	           -0.255695	           -0.541803	           -0.341202	           -0.305386	           -1.560531	            4.223302	            1.845966	           -0.232311	            0.006130	           -0.833667	           -1.125220	           -0.524170	            0.055175
            2.505000	           -0.551927	           -5.042827	           -1.120820	           -0.233013	            0.005581	           -0.255695	           -0.645169	           -0.174752	           -0.323194	           -1.746868	            3.856504	            1.234666	           -0.232311	            0.006130	           -0.833667	           -1.069317	           -0.391830	            0.112174
            2.505500	           -0.687847	           -4.505005	           -0.430321	           -0.233013	            0.005581	           -0.255695	           -0.618565	            0.194869	           -0.308761	           -2.070309	            2.567453	            0.901710	           -0.232311	            0.006130	           -0.833667	           -0.900598	           -0.296626	            0.093589
            2.506000	           -0.733297	           -5.406736	           -0.342360	           -0.233013	            0.005581	           -0.255695	           -0.621720	            0.480993	           -0.215459	           -2.162618	            2.198316	            1.041220	           -0.232311	            0.006130	           -0.833667	           -0.975995	           -0.230593	            0.056157
            2.506500	           -0.686432	           -4.147030	            0.167352	           -0.233013	            0.005581	           -0.255695	           -0.625236	            0.342381	           -0.214134	           -1.971231	            1.094103	            1.037197	           -0.232311	            0.006130	           -0.833667	           -0.768990	           -0.324576	            0.112282
            2.507000	           -0.273828	           -4.867816	            0.117380	           -0.233013	            0.005581	           -0.255695	           -0.510368	            0.047286	           -0.310855	           -1.647831	            2.383489	            1.276298	           -0.232311	            0.006130	           -0.833667	           -0.693413	           -0.447123	            0.092961
            2.507500	            0.092020	           -4.325572	           -0.202202	           -0.233013	            0.005581	           -0.255695	           -0.571777	           -0.322708	           -0.202680	           -1.501882	            0.910140	            1.458694	           -0.232311	            0.006130	           -0.833667	           -0.599358	           -0.484527	            0.073936
            2.508000	            0.091939	           -4.505641	           -0.248831	           -0.233013	            0.005581	           -0.255695	           -0.569822	           -0.451875	           -0.259626	           -1.362765	            1.279781	            1.225308	           -0.232311	            0.006130	           -0.833667	           -0.637074	           -0.446785	            0.055237
            2.508500	            0.366395	           -4.324339	           -0.478020	           -0.233013	            0.005581	           -0.255695	           -0.503824	           -0.156036	           -0.228002	           -1.030430	           -0.005897	            0.610504	           -0.232311	            0.006130	           -0.833667	           -0.637714	           -0.267251	            0.074728
            2.509000	            0.229747	           -5.407140	           -0.207181	           -0.233013	            0.005581	           -0.255695	           -0.533666	            0.204317	           -0.213410	           -1.219742	            0.545202	            0.800267	           -0.232311	            0.006130	           -0.833667	           -0.563168	           -0.115333	           -0.037865
            2.509500	           -0.320534	           -4.505917	           -0.201951	           -0.233013	            0.005581	           -0.255695	           -0.553344	            0.398575	           -0.330008	           -1.121574	           -0.741992	            0.373275	           -0.232311	            0.006130	           -0.833667	           -0.469242	           -0.105810	            0.037529
            2.510000	           -0.319949	           -3.966300	            0.075503	           -0.233013	            0.005581	           -0.255695	           -0.527811	            0.278345	           -0.311808	           -0.794872	           -0.373181	            0.562162	           -0.232311	            0.006130	           -0.833667	           -0.619363	           -0.153549	            0.018574
            2.510500	           -0.411815	           -3.605590	            0.031421	           -0.233013	            0.005581	           -0.255695	           -0.600979	           -0.082448	           -0.260701	           -0.278838	           -0.555636	            0.608214	           -0.232311	            0.006130	           -0.833667	           -0.506386	           -0.228696	           -0.000594
            2.511000	           -0.045053	           -4.326385	           -0.018437	           -0.233013	            0.005581	           -0.255695	           -0.485870	           -0.442671	           -0.265666	           -0.327497	           -0.004866	            1.032558	           -0.232311	            0.006130	           -0.833667	           -0.412339	           -0.266033	           -0.038469
            2.511500	            0.275066	           -3.784346	           -0.292050	           -0.233013	            0.005581	           -0.255695	           -0.493185	           -0.405641	           -0.233027	           -0.368968	           -1.478724	            1.168106	           -0.232311	            0.006130	           -0.833667	           -0.374794	           -0.256512	           -0.019601
            2.512000	            0.137456	           -3.964442	           -0.338338	           -0.233013	            0.005581	           -0.255695	           -0.566324	           -0.072877	           -0.256075	           -0.369777	           -1.293404	            0.840266	           -0.232311	            0.006130	           -0.833667	           -0.412739	           -0.161852	           -0.094649
            2.512500	            0.274676	           -4.144091	           -0.477020	           -0.233013	            0.005581	           -0.255695	           -0.541853	            0.278838	           -0.342747	           -0.839166	           -1.109106	            0.324913	           -0.232311	            0.006130	           -0.833667	           -0.507307	            0.026527	            0.000317
            2.513000	            0.183691	           -4.866155	           -0.250605	           -0.233013	            0.005581	           -0.255695	           -0.532050	            0.389082	           -0.195798	           -0.930249	           -1.845703	            0.228468	           -0.232311	            0.006130	           -0.833667	           -0.356895	           -0.019858	           -0.094167
            2.513500	           -0.366230	           -4.686389	           -0.156755	           -0.233013	            0.005581	           -0.255695	           -0.517734	            0.121502	           -0.389627	           -0.556800	           -1.475886	            0.182695	           -0.232311	            0.006130	           -0.833667	           -0.318906	           -0.133222	           -0.075737
            2.514000	           -0.502815	           -4.868254	            0.209661	           -0.233013	            0.005581	           -0.255695	           -0.476659	           -0.239436	           -0.303144	           -0.134362	           -1.659516	            0.463427	           -0.232311	            0.006130	           -0.833667	           -0.393435	           -0.294458	           -0.000878
            2.514500	           -0.091142	           -3.605135	           -0.061088	           -0.233013	            0.005581	           -0.255695	           -0.578145	           -0.470602	           -0.229941	            0.051105	           -1.106897	            0.606103	           -0.232311	            0.006130	           -0.833667	           -0.356042	           -0.256175	           -0.095010
            2.515000	           -0.182957	           -4.145556	           -0.154891	           -0.233013	            0.005581	           -0.255695	           -0.592929	           -0.322353	           -0.327149	            0.334342	           -1.659498	            0.932509	           -0.232311	            0.006130	           -0.833667	           -0.299833	           -0.199726	            0.037120
            2.515500	            0.366916	           -4.685657	           -0.296143	           -0.233013	            0.005581	           -0.255695	           -0.530449	            0.010750	           -0.321198	            0.242595	           -2.211947	            0.836722	           -0.232311	            0.006130	           -0.833667	           -0.300470	           -0.038560	           -0.094258
